<svg xmlns="http://www.w3.org/2000/svg" viewBox="0 0 30 30"><defs><style>.cls-1{fill:#222222;}</style></defs><g id="ICON"><path class="cls-1" d="M15.07,12.29A2.74,2.74,0,1,0,17.81,15,2.74,2.74,0,0,0,15.07,12.29Z"/><path class="cls-1" d="M18.47,8H11.53A3.59,3.59,0,0,0,8,11.56V18.5a3.59,3.59,0,0,0,3.58,3.58h6.94a3.59,3.59,0,0,0,3.58-3.58V11.56A3.59,3.59,0,0,0,18.47,8Zm-3.4,11.33A4.28,4.28,0,1,1,19.35,15,4.28,4.28,0,0,1,15.07,19.31Zm4.53-7.83a1,1,0,1,1,1-1A1,1,0,0,1,19.6,11.48Z"/><path class="cls-1" d="M22.41,0H7.59A7.59,7.59,0,0,0,0,7.59V22.41A7.59,7.59,0,0,0,7.59,30H22.41A7.59,7.59,0,0,0,30,22.41V7.59A7.59,7.59,0,0,0,22.41,0Zm1.28,18.5a5.22,5.22,0,0,1-5.22,5.22H11.53A5.22,5.22,0,0,1,6.31,18.5V11.56a5.22,5.22,0,0,1,5.22-5.22h6.94a5.22,5.22,0,0,1,5.22,5.22Z"/></g></svg>