<svg xmlns="http://www.w3.org/2000/svg" viewBox="0 0 30 30"><defs><style>.cls-1{fill:#222222;}</style></defs><g id="ICON"><path class="cls-1" d="M22.27.28H7.73A7.44,7.44,0,0,0,.28,7.73V22.27a7.44,7.44,0,0,0,7.45,7.45H22.27a7.44,7.44,0,0,0,7.45-7.45V7.73A7.44,7.44,0,0,0,22.27.28ZM9.34,24.77c0,.13,0,.2-.17.19H5.08c-.16,0-.21,0-.21-.2,0-2.17,0-4.34,0-6.52s0-4.33,0-6.5c0-.18.06-.21.22-.21H9.16c.16,0,.18.06.18.2v13ZM9.49,8.26a2.11,2.11,0,0,1-1.34,1.3,2.56,2.56,0,0,1-1,.17,2.44,2.44,0,0,1-1.73-.56,2.23,2.23,0,0,1-.79-2A2.09,2.09,0,0,1,5.93,5.29a2.89,2.89,0,0,1,2.83.25,1.92,1.92,0,0,1,.79,1.17A2.49,2.49,0,0,1,9.49,8.26ZM25.4,24.73c0,.19,0,.23-.23.23h-4c-.17,0-.21-.05-.21-.21q0-3.49,0-7a4,4,0,0,0-.39-1.92,1.79,1.79,0,0,0-1.65-1,2.24,2.24,0,0,0-1.32.24,2.57,2.57,0,0,0-1.31,2.28c0,1.88,0,3.75,0,5.63v1.84c0,.13,0,.18-.17.18H12c-.17,0-.19-.06-.19-.2V18.24h0V11.72c0-.14,0-.19.18-.18h4.11c.13,0,.18,0,.17.17v1.36c0,.06,0,.14,0,.16s.1-.06.14-.1a5,5,0,0,1,.81-.9,4,4,0,0,1,1.95-.92,6.09,6.09,0,0,1,2.33,0,4.41,4.41,0,0,1,3.21,2.56,6.76,6.76,0,0,1,.57,2,26.45,26.45,0,0,1,.08,3.33C25.41,21.07,25.4,22.9,25.4,24.73Z"/></g></svg>