<svg xmlns="http://www.w3.org/2000/svg" viewBox="0 0 30 30"><defs><style>.cls-1{fill:#222222;}</style></defs><g id="ICON"><path class="cls-1" d="M22.41,0H7.59A7.59,7.59,0,0,0,0,7.59V22.41A7.59,7.59,0,0,0,7.59,30H22.41A7.59,7.59,0,0,0,30,22.41V7.59A7.59,7.59,0,0,0,22.41,0Zm.84,10a.44.44,0,0,1-.08.26,6.83,6.83,0,0,1-1.29,1.34c-.08.06-.2.11-.2.22a9.92,9.92,0,0,1-2.63,7.26,9.77,9.77,0,0,1-9.49,2.22,8.82,8.82,0,0,1-1.84-.73l-.57-.34s-.08-.07,0-.1.07,0,.22,0a6.61,6.61,0,0,0,2.75-.35,4.19,4.19,0,0,0,1.8-1s0,0,0,0-.24,0-.36-.05A3.53,3.53,0,0,1,8.9,16.57c0-.08,0-.13.09-.11a4.25,4.25,0,0,0,1.26,0,3.06,3.06,0,0,1-.43-.13,3.41,3.41,0,0,1-2.1-2.72,1.73,1.73,0,0,1,0-.39c0-.08,0-.11.12-.06a3.41,3.41,0,0,0,1.28.36l-.4-.36a3.38,3.38,0,0,1-.58-4c.06-.1.11-.1.18,0A10.38,10.38,0,0,0,15,12.51c.07,0,.08,0,.07-.08a3.61,3.61,0,0,1,0-1.39,3.49,3.49,0,0,1,.66-1.32,3.54,3.54,0,0,1,1.1-.9,3.47,3.47,0,0,1,1.37-.38,3.23,3.23,0,0,1,1.44.23,3.64,3.64,0,0,1,.94.57,1.49,1.49,0,0,1,.17.18.12.12,0,0,0,.13,0,8.44,8.44,0,0,0,1.94-.74.11.11,0,0,1,.08,0s0,.06,0,.09a3.08,3.08,0,0,1-.54,1c-.16.19-.54.67-.81.71A6.67,6.67,0,0,0,23.19,10c.06,0,.06,0,.06,0Z"/></g></svg>