<?xml version="1.0" encoding="utf-8"?>
<!-- Generator: Adobe Illustrator 25.4.1, SVG Export Plug-In . SVG Version: 6.00 Build 0)  -->
<svg version="1.1" xmlns="http://www.w3.org/2000/svg" xmlns:xlink="http://www.w3.org/1999/xlink" x="0px" y="0px"
	 viewBox="0 0 301.8 16" style="enable-background:new 0 0 301.8 16;" xml:space="preserve">
<style type="text/css">
	.st0{fill:#FFFFFF;}
	.st1{fill:#333333;}
	.st2{fill:url(#SVGID_00000020363949360826920090000008215947533105126324_);}
	.st3{fill-rule:evenodd;clip-rule:evenodd;fill:#009245;}
	.st4{fill:url(#SVGID_00000057120212539297873520000010416562866677841080_);}
	.st5{fill:url(#SVGID_00000048466813619784913050000008664647580924160388_);}
	.st6{fill:#F2F2F2;}
	.st7{fill:#4D4D4D;}
	.st8{fill:#B3B3B3;}
	.st9{fill:#999999;}
	.st10{fill:#CCCCCC;}
	.st11{fill:#C30D23;}
	.st12{fill:none;stroke:#FFFFFF;stroke-width:0.75;stroke-miterlimit:10;}
	.st13{fill:#F7F7F7;}
	.st14{display:none;}
</style>
<g id="Background">
</g>
<g id="Bar">
</g>
<g id="IMAGE">
	<g>
		<path class="st6" d="M218.6,0c-1.2,0-5.2,0-6.1,0c-4,0-7.2,3.3-8,6c-0.4,1.4-0.8,2.8-1.1,4.2c-0.8,3.2,1.2,5.7,4.5,5.7
			c1.9,0,3.8,0,5.6,0c3.6,0,6.9-2.4,7.8-5.8c0.4-1.6,0.9-3.1,1.3-4.7C223.4,2.8,221.4,0.1,218.6,0z M218.4,6.3
			c-0.3,1.2-0.6,2.3-1,3.5c-0.4,1.4-1.3,2-2.7,2c-0.9,0-4.5,0-5.5,0c-1.3,0-1.9-0.7-1.5-1.9c0.3-1.2,0.6-2.4,1-3.7
			c0.4-1.4,1.4-2.2,2.8-2.2c1.7,0,3.5,0,5.2,0C218.2,4.1,218.8,4.9,218.4,6.3z"/>
		<path class="st6" d="M135.2,15.9c-2.6,0-5.3,0-7.9,0c-1.1,0-1.4-0.4-1.1-1.4c1.1-4,2.2-8,3.3-12C130,0.8,131,0,132.9,0
			c4.9,0,9.7,0,14.6,0c0.6,0,0.8,0.1,0.6,0.7c-0.2,0.9-0.5,1.8-0.8,2.7c-0.1,0.5-0.3,0.6-0.9,0.6c-4,0-7.9,0-11.9,0
			c-0.5,0-1,0.1-1.4,0.5c-0.2,0.2-0.4,0.6-0.2,1c0.2,0.3,0.5,0.4,0.8,0.4c0.4,0,0.8,0,1.3,0c3.6,0,7.2,0,10.8,0c0.5,0,0.7,0,0.5,0.6
			c-0.3,1.1-0.5,2-0.8,2.9c-0.2,0.6-0.4,0.6-0.8,0.6c-4,0-8,0-12,0c-0.5,0-1,0.1-1.3,0.4c-0.2,0.2-0.3,0.6-0.1,0.9
			c0.2,0.3,0.4,0.4,0.8,0.4c1.5,0,2.9,0,4.4,0c2.6,0,5.2,0,7.8,0c0.5,0,0.6,0.1,0.5,0.6c-0.3,1-0.5,1.9-0.8,2.9
			c-0.1,0.5-0.3,0.6-0.8,0.6C140.5,15.9,137.9,15.9,135.2,15.9z"/>
		<path class="st6" d="M275.4,4.1c-1.8,0-3.6,0-5.3,0c-1.5,0-2.5,0.7-2.9,2.1c-0.3,1.2-0.7,2.3-1,3.5c-0.4,1.4,0.1,2.1,1.6,2.1
			c2.1,0,4.3,0,6.4,0c0.4,0,0.9,0,1.1-0.2c0.3-0.3,0.4-0.8,0.3-1.1c-0.1-0.5-0.6-0.4-1-0.4c-0.7,0-1.4,0-2.1,0
			c-0.4,0-0.6-0.1-0.5-0.5c0.3-1.1,0.6-2.2,0.9-3.3C273,6,273.2,6,273.5,6c1.6,0,3.3,0,4.9,0c1.2,0,2.2,1.1,2,2.3
			c-0.3,1.9-0.6,3.7-1.7,5.4c-1.1,1.7-2.8,2.3-4.7,2.3c-2.6,0-5.2,0-7.8,0c-3-0.1-5-2.6-4.3-5.5c0.4-1.5,0.8-3.1,1.2-4.6
			c1.1-3.5,4.3-5.8,7.9-5.8c3.7,0,7.3,0,11,0c0.6,0,0.8,0.1,0.5,0.7c-0.3,0.9-0.5,1.9-0.8,2.8c-0.1,0.5-0.3,0.6-0.8,0.6
			C279.1,4.1,277.3,4.1,275.4,4.1z"/>
		<path class="st6" d="M173.4,10.1c-1.2,0-2.4,0-3.7,0c-0.8,0-1.3,0.4-1.5,1.1c-0.4,1.4-0.8,2.8-1.1,4.2c-0.1,0.4-0.3,0.6-0.7,0.6
			c-0.9,0-1.9,0-2.8,0c-0.5,0-0.7-0.2-0.6-0.7c0.9-3.3,1.8-6.6,2.8-9.9c0.4-1.5,0.9-3.1,1.3-4.6c0.1-0.5,0.3-0.6,0.8-0.6
			c0.5,0,1.9,0,2.9,0c0.5,0,0.7,0.1,0.5,0.6c-0.4,1.4-0.8,2.7-1.1,4.1C169.8,5.7,170,6,171,6c2.4,0,4.8,0,7.2,0c1,0,1.4-0.3,1.7-1.3
			c0.4-1.3,0.8-2.7,1.1-4c0.1-0.5,0.3-0.6,0.8-0.6c1,0,1.8,0,2.8,0c0.5,0,0.7,0.1,0.5,0.7c-1.1,3.9-2.1,7.7-3.2,11.6
			c-0.3,1.1-0.6,2.1-0.9,3.2c-0.1,0.3-0.2,0.5-0.6,0.5c-1,0-2.1,0-3.1,0c-0.5,0-0.5-0.3-0.4-0.6c0.4-1.4,0.8-2.7,1.1-4.1
			c0.3-0.9,0.1-1.2-0.9-1.2C175.9,10.1,174.7,10.1,173.4,10.1z"/>
		<path class="st6" d="M156.4,15.9c-1.3-0.1-2.8,0.2-4.3-0.1c-3.5-0.6-5.4-3.6-4.8-7c0.8-4.5,5.3-8.8,10.8-8.8c2.3,0,4.7,0,7,0
			c0.4,0,0.6,0.2,0.5,0.6c-0.3,0.9-0.5,1.9-0.8,2.8c-0.1,0.5-0.4,0.6-0.9,0.6c-2.4,0-4.8,0-7.2,0c-2.5,0-4.8,2.1-5.1,4.4
			c-0.3,1.9,1,3.3,3,3.3c2.4,0,4.9,0,7.3,0c0.5,0,0.6,0.1,0.5,0.6c-0.3,1-0.6,2-0.8,3c-0.1,0.4-0.3,0.6-0.7,0.6
			C159.4,15.9,158.1,15.9,156.4,15.9z"/>
		<path class="st6" d="M232.9,15.9c-1.8,0-3.6,0-5.4,0c-3.3,0-5.3-2.5-4.5-5.7c0.8-3.2,1.8-6.5,2.6-9.7c0.1-0.4,0.3-0.5,0.6-0.5
			c1,0,2,0,3,0c0.6,0,0.6,0.2,0.5,0.7c-0.9,3.1-1.7,6.1-2.5,9.2c-0.4,1.3,0.2,2,1.5,2c3.7,0,7.4,0,11.1,0c0.6,0,0.7,0.2,0.6,0.7
			c-0.2,0.9-0.5,1.8-0.8,2.7c-0.1,0.5-0.3,0.7-0.9,0.7C236.7,15.9,234.8,15.9,232.9,15.9z"/>
		<path class="st6" d="M301.8,0.4c-1,1-1.9,2-2.9,2.9c-2,2-3.9,3.9-5.9,5.8c-0.4,0.4-0.6,0.8-0.7,1.3c-0.4,1.7-0.9,3.3-1.4,5
			c-0.1,0.4-0.3,0.6-0.7,0.5c-1,0-2,0-3,0c-0.5,0-0.6-0.1-0.4-0.6c0.5-1.6,0.8-3.1,1.3-4.7c0.2-0.8,0.2-1.5-0.2-2.3
			c-1.2-2.5-2.4-5.1-3.6-7.6C284,0.1,284.4,0,284.8,0s1.8,0,2.4,0c0.4,0,0.5,0.1,0.8,0.8c0.7,1.4,1.9,4,2.2,4.7
			c0.4,0.9,0.6,0.9,1.3,0.2c1.8-1.7,3.5-3.4,5.3-5.1c0.4-0.4,0.8-0.6,1.3-0.5c1.1,0,2.3,0,3.5,0C301.8,0,301.9,0.3,301.8,0.4z"/>
		<path class="st6" d="M257.6,0c-1.2,0-5.2,0-6.1,0c-4,0-7.2,3.3-8,6c-0.4,1.4-0.8,2.8-1.1,4.2c-0.8,3.2,1.2,5.7,4.5,5.7
			c1.9,0,3.8,0,5.6,0c3.6,0,6.9-2.4,7.8-5.8c0.4-1.6,0.9-3.1,1.3-4.7C262.5,2.8,260.4,0.1,257.6,0z M257.4,6.3
			c-0.3,1.2-0.6,2.3-1,3.5c-0.4,1.4-1.3,2-2.7,2c-0.9,0-4.5,0-5.5,0c-1.3,0-1.9-0.7-1.5-1.9c0.3-1.2,0.6-2.4,1-3.7
			c0.4-1.4,1.4-2.2,2.8-2.2c1.7,0,3.5,0,5.2,0C257.3,4.1,257.8,4.9,257.4,6.3z"/>
		<path class="st6" d="M204.2,0c-1,0-2,0-3,0c-0.5,0-0.6,0.2-0.7,0.6c-0.3,1.3-2,7.4-2.6,9.3c-0.1,0.3-0.5,0.4-0.6,0.1
			c-1.1-2-4.3-8.1-5.3-9.1c-0.4-0.4-0.9-0.8-1.5-0.8c-0.8,0-1.6,0-2.5,0c-0.9,0-1.4,0.6-1.6,1.4c-0.3,0.9-3.5,12.5-3.8,13.9
			c-0.1,0.4-0.1,0.5,0.4,0.5c1,0,2,0,3,0c0.5,0,0.6-0.2,0.7-0.6c0.1-0.3,2.1-7.8,2.6-9.3c0.1-0.3,0.5-0.4,0.6-0.1c0,0,0,0,0,0
			c1.3,2.4,2.6,4.7,3.8,7.1c0.7,1.3,2.1,2.9,3,2.9c1,0,1.2,0,2.1,0c1,0,1.6-0.4,2-1.6c1.3-4.6,2.5-9.2,3.8-13.7
			C204.7,0.2,204.7,0,204.2,0z"/>
		<path class="st6" d="M128.6,0.6c-0.3,1-0.5,2-0.8,3c-0.1,0.4-0.3,0.5-0.7,0.5c-1.7,0-3.3,0-5,0c-1,0-1.4,0.3-1.7,1.3
			c-0.9,3.3-1.8,6.6-2.7,9.9c0,0,0,0.1,0,0.1c0,0,0,0,0,0.1c0,0,0,0,0,0c-0.1,0.2-0.3,0.4-0.6,0.5c-0.1,0-0.1,0-0.2,0c0,0,0,0-0.1,0
			c-0.8,0-1.8,0-2.7,0c-0.4,0-0.7-0.3-0.5-1c0.8-3.3,1.8-6.4,2.6-9.6c0.2-0.9,0-1.2-0.9-1.2c-1.7,0-3.3,0-5,0
			c-0.6,0-0.6-0.1-0.5-0.7c0.3-1,0.5-1.9,0.8-2.9c0.1-0.4,0.3-0.6,0.7-0.6c5.6,0,11.2,0,16.9,0C128.5,0,128.7,0.1,128.6,0.6z"/>
		<g>
			<path class="st6" d="M27.1,16h-4.2c-0.4,0-0.6-0.3-0.5-0.7c0.1-0.5,0.3-1.1,0.4-1.6c0.6-2.8,1.3-5.6,1.9-8.4
				C25,4.1,25.4,2.9,26.3,2c0.8-0.8,1.7-1.3,2.8-1.5c1.3-0.3,2.7-0.4,4.1-0.4c2.4,0,4.8,0,7.2,0c1.3,0,2.6,0.1,3.9,0.5
				c1.8,0.6,2.5,1.8,2.2,3.6c-0.7,3.3-1.5,6.5-2.2,9.8c-0.1,0.5-0.2,1-0.4,1.6c-0.1,0.2-0.3,0.4-0.5,0.4h-4.2
				c-0.4,0-0.6-0.3-0.5-0.7c0.1-0.5,0.2-0.9,0.3-1.3c0.6-2.6,1.2-5.2,1.8-7.8c0.1-0.3,0.1-0.6,0-0.9c-0.1-0.6-0.4-0.9-1-1.1
				C39,4,37.9,4,37.7,4S34,4,33.5,4c-0.5,0-1.1,0.1-1.6,0.2c-1.4,0.3-2,1.4-2.3,2.7c-0.7,2.9-1.3,5.8-2,8.7
				C27.6,15.8,27.4,16,27.1,16z"/>
			<path class="st6" d="M19.5,0h4.2c0.4,0,0.6,0.3,0.5,0.7c-0.1,0.5-0.3,1.1-0.4,1.6c-0.6,2.8-1.3,5.6-1.9,8.4
				c-0.3,1.2-0.8,2.4-1.7,3.4c-0.8,0.8-1.7,1.3-2.8,1.5c-1.3,0.3-2.7,0.4-4.1,0.4c-2.4,0-4.8,0-7.2,0c-1.3,0-2.6-0.1-3.9-0.5
				c-1.8-0.6-2.5-1.8-2.2-3.6C0.8,8.6,1.5,5.3,2.3,2c0.1-0.5,0.2-1,0.4-1.6C2.7,0.2,2.9,0,3.2,0h4.2C7.7,0,8,0.4,7.9,0.7
				C7.8,1.2,7.7,1.6,7.6,2C7,4.6,6.4,7.2,5.8,9.8c-0.1,0.3-0.1,0.6,0,0.9c0.1,0.6,0.4,0.9,1,1.1C7.6,12,8.7,12,8.9,12s3.7,0,4.2,0
				c0.5,0,1.1-0.1,1.6-0.2c1.5-0.3,2-1.4,2.3-2.7c0.7-2.9,1.3-5.8,2-8.7C19,0.2,19.2,0,19.5,0z"/>
			<path class="st6" d="M104.2,0.4C104.2,0.4,104.2,0.4,104.2,0.4c-3,2.1-5.9,4.1-8.8,6.2c-0.5,0.4-1,0.7-1.5,1.1
				c-0.3,0.2-0.3,0.3,0,0.5c1.8,1.7,8,7.4,8.1,7.4c0.2,0.1,0.1,0.4-0.2,0.4H95c-0.4,0-0.7-0.3-0.9-0.5c-1.1-1-5.3-4.9-6.3-5.8
				c0,0-0.1-0.1-0.2-0.1c-0.1-0.1-0.3,0-0.3,0.1c0,0,0,0.1-0.1,0.2c-0.2,1-1.2,4.9-1.3,5.8c-0.1,0.3-0.2,0.4-0.4,0.4
				c-1.6,0-3.1,0-4.7,0c-0.3,0-0.4-0.1-0.3-0.4c0.3-1.3,3.4-14.8,3.5-15.2C84.1,0.1,84.2,0,84.5,0c1.6,0,3,0,4.5,0
				c0.3,0,0.5,0.1,0.4,0.4c-0.2,0.7-0.3,1.4-0.5,2.1c-0.2,0.9-0.4,1.7-0.6,2.6c0,0.1,0,0.1,0,0.2c0,0,0,0.1,0,0.1
				c0,0.2,0.1,0.3,0.3,0.3c0.1,0,0.1,0,0.2-0.1c0,0,0,0,0,0c0.1-0.1,0.2-0.2,0.4-0.2c2.7-1.8,5.3-3.5,8-5.3C97.3,0.1,97.6,0,97.8,0
				c2.1,0,4.2,0,6.3,0h0C104.3,0,104.3,0.3,104.2,0.4z"/>
			<g>
				<path class="st6" d="M76,5.5c-0.8,3.4-1.5,6.7-2.3,10C73.6,15.8,73.8,16,74,16h4.7c0.2,0,0.3-0.1,0.3-0.3l2.4-10.2H76z"/>
				<path class="st6" d="M82.2,0h-4.6c-0.2,0-0.3,0.1-0.3,0.3c-0.3,1.2-0.6,2.5-0.9,3.8h5.4l0.8-3.6C82.6,0.2,82.4,0,82.2,0z"/>
			</g>
			<g>
				<path class="st6" d="M61.8,5.5c-0.7,2.9-2.1,9.1-2.3,9.9C59.4,15.9,59.5,16,60,16c1.5,0,3,0,4.5,0c0.3,0,0.4-0.2,0.5-0.4
					c0.2-0.8,1.9-8,2.3-10H61.8z"/>
				<path class="st6" d="M55.5,4c2,0,6.1,0,6.2,0c0,0,0,0,0,0h12.8c0.3,0,0.4-0.2,0.5-0.3c0.3-1.1,0.5-2.1,0.8-3.2
					C75.8,0.2,75.6,0,75.3,0C74.4,0,59,0,56.4,0c-0.3,0-0.5,0.1-0.6,0.5c-0.1,0.3-0.6,2.4-0.7,3.1C55,4,55.2,4,55.5,4z"/>
			</g>
			<g>
				<path class="st6" d="M53.4,4l0.8-3.6C54.3,0.2,54.2,0,53.9,0h-4.6c-0.2,0-0.3,0.1-0.3,0.3c-0.3,1.2-0.6,2.5-0.9,3.7H53.4z"/>
				<path class="st6" d="M47.7,5.5c-0.8,3.4-1.5,6.8-2.3,10c-0.1,0.2,0.1,0.4,0.3,0.4h4.7c0.2,0,0.3-0.1,0.3-0.3l2.4-10.2H47.7z"/>
			</g>
		</g>
	</g>
</g>
<g id="ICON">
</g>
<g id="Word">
</g>
<g id="AllView">
</g>
<g id="LINE" class="st14">
</g>
</svg>
