<svg xmlns="http://www.w3.org/2000/svg" viewBox="0 0 30 30"><defs><style>.cls-1{fill:#f7f7f7;}</style></defs><g id="AllView"><path class="cls-1" d="M15,4.84A10.16,10.16,0,1,0,25.16,15,10.17,10.17,0,0,0,15,4.84ZM11.69,15A18.77,18.77,0,0,1,12,11.9h2.26V18H11.94A18.79,18.79,0,0,1,11.69,15Zm4.1-8.24a6.72,6.72,0,0,1,1.92,3.56H15.79Zm-1.58,0v3.56H12.28A6.78,6.78,0,0,1,14.21,6.76Zm0,12.84v3.64a6.83,6.83,0,0,1-2-3.64Zm1.58,3.64V19.6h1.94A6.76,6.76,0,0,1,15.79,23.24Zm0-5.23V11.9h2.26a18.77,18.77,0,0,1,.26,3.1,18.79,18.79,0,0,1-.25,3Zm3.86-6.11H23a8.43,8.43,0,0,1,.6,3.1A8.61,8.61,0,0,1,23,18H19.67a22.07,22.07,0,0,0,.22-3A21.66,21.66,0,0,0,19.65,11.9Zm2.51-1.58H19.35A11.42,11.42,0,0,0,18.06,7,8.55,8.55,0,0,1,22.16,10.32ZM11.94,7a11.42,11.42,0,0,0-1.29,3.3H7.84A8.55,8.55,0,0,1,11.94,7ZM7,11.9h3.32a20.31,20.31,0,0,0-.24,3.1,22.07,22.07,0,0,0,.22,3H7a8.61,8.61,0,0,1-.57-3A8.43,8.43,0,0,1,7,11.9Zm.76,7.7h2.83A11.57,11.57,0,0,0,11.94,23,8.58,8.58,0,0,1,7.79,19.6ZM18.06,23a11.57,11.57,0,0,0,1.32-3.38h2.83A8.58,8.58,0,0,1,18.06,23Z"/></g></svg>